<svg xmlns="http://www.w3.org/2000/svg" width="95" height="64" viewBox="0 0 95 64"><defs><linearGradient id="a" x1="0%" x2="99.971%" y1="50%" y2="50%"><stop offset="0%" stop-color="#D93F0B" stop-opacity=".6"/><stop offset="100%" stop-color="#D93F0B"/></linearGradient></defs><path fill="url(#a)" d="M55.5191708,42.6059824 C54.1787229,52.8592159 44.8426208,60.1258424 34.5658535,58.8559465 L39.1372653,21.6283069 C39.1468104,21.5505753 39.1515963,21.4723331 39.1515963,21.3940176 L39.1515963,21.3940176 L39.1515963,21.3940176 C40.4920443,11.1407841 49.851663,3.87415758 60.1049137,5.14405347 L55.5335019,42.3716931 C55.5239568,42.4494247 55.5191708,42.5276669 55.5191708,42.6059824 L55.5191708,42.6059824 L55.5191708,42.6059824 Z M28.5926295,42.6059824 C27.2756982,52.8592159 17.9160794,60.1258424 7.63931212,58.8559465 L9.92925313,40.3027821 C9.93904222,40.2234706 9.95178619,40.144552 9.9674585,40.0661906 L9.9674585,40.0661906 L9.9674585,40.0661906 C11.2843898,29.8129571 20.6440085,22.5463306 30.9207758,23.8162265 L28.6308348,42.3693909 C28.6210457,42.4487023 28.6083018,42.527621 28.5926295,42.6059824 L28.5926295,42.6059824 L28.5926295,42.6059824 Z M85.0325415,23.9338094 C83.7156102,34.1870429 74.3559915,41.4536694 64.0792242,40.1837735 L66.4073705,21.3940176 C67.7243018,11.1407841 77.0839206,3.87415758 87.3606879,5.14405347 L85.0325415,23.9338094 Z"/></svg>